<svg width="57" height="43" xmlns="http://www.w3.org/2000/svg">

 <g>
  <title>background</title>
  <rect fill="none" id="canvas_background" height="45" width="59" y="-1" x="-1"/>
 </g>
 <g>
  <title>Layer 1</title>
  <g stroke="null" id="svg_1">
   <g stroke="null" id="svg_2">
    <circle stroke="null" id="svg_3" fill="#B8BAC0" r="12.238343" cy="17.774024" cx="35.869402"/>
   </g>
   <g stroke="null" id="svg_4">
    <g stroke="null" id="svg_5">
     <path stroke="null" id="svg_6" fill="#FFFFFF" d="m35.869402,30.377912c-3.289084,0 -6.2732,-1.258709 -8.474946,-3.293155c-0.001648,1.21924 -0.051318,2.978977 -0.413843,4.262984c0.237759,0.129639 0.422317,0.342416 0.458334,0.607153c0.469869,3.409883 4.093817,5.980942 8.430455,5.980942c4.335696,0 7.959644,-2.571374 8.430455,-5.980942c0.036488,-0.265052 0.217044,-0.477514 0.458452,-0.606733c-0.362524,-1.284112 -0.412312,-3.044059 -0.41396,-4.263404c-2.201746,2.034446 -5.185862,3.293155 -8.474946,3.293155z"/>
    </g>
   </g>
   <g stroke="null" id="svg_7">
    <g stroke="null" id="svg_8">
     <path stroke="null" id="svg_9" fill="#D7DBE0" d="m44.160378,27.239694c-2.183267,1.939552 -5.089699,3.138218 -8.290977,3.138218c-3.289084,0 -6.2732,-1.258709 -8.474946,-3.293155c-0.001648,1.21924 -0.051318,2.978977 -0.413843,4.262984c0.237759,0.129639 0.422317,0.342416 0.458334,0.607153c0.207745,1.507281 1.033194,2.849337 2.262599,3.879105c5.669503,-0.711914 12.104426,-5.704658 14.458833,-8.594304z"/>
    </g>
   </g>
   <g stroke="null" id="svg_10">
    <g stroke="null" id="svg_11">
     <path stroke="null" id="svg_12" fill="#FFFFFF" d="m44.343995,9.383678l-16.007565,0c-2.595933,0 -4.708107,1.883708 -4.708107,4.198847l0,5.038616c0,6.482809 5.491536,11.756771 12.241079,11.756771s12.241079,-5.273961 12.241079,-11.756771l0,-5.878385c0,-1.852111 -1.689269,-3.359077 -3.766486,-3.359077z"/>
    </g>
   </g>
   <g stroke="null" id="svg_13">
    <g stroke="null" id="svg_14">
     <path stroke="null" id="svg_15" fill="#5C546A" d="m42.460752,0.146215l-12.241079,0c-1.771072,0 -3.259776,1.095689 -3.660789,2.56644c-3.241414,0.367504 -5.755426,2.842514 -5.755426,5.831253l0,4.198847c0,2.164191 1.030134,4.183206 2.824864,5.618057l0,-4.778288c0,-2.315139 2.112175,-4.198847 4.708107,-4.198847l16.007565,0c2.077217,0 3.766486,1.506861 3.766486,3.359077l0,5.617112c1.795084,-1.434641 2.824864,-3.453446 2.824864,-5.617112l0,-5.038616c0,-4.16725 -3.801444,-7.557924 -8.474593,-7.557924z"/>
    </g>
   </g>
   <g stroke="null" id="svg_16">
    <path stroke="null" id="svg_17" fill="#5C546A" d="m14.87501,34.626515c5.170679,5.119969 12.659983,8.340589 20.994392,8.340589s15.823713,-3.22062 20.994392,-8.340589c-0.901603,-1.087081 -2.173027,-1.970309 -3.807917,-2.378542c-0.037665,-0.009447 -0.075447,-0.016795 -0.114054,-0.021729l-7.516376,-1.005834c-0.046022,-0.006193 -0.144421,-0.009447 -0.191267,-0.009447c-0.475401,0 -0.876296,0.316173 -0.934324,0.737213c-0.470811,3.409464 -4.094759,5.980942 -8.430455,5.980942c-4.336638,0 -7.960585,-2.570954 -8.430455,-5.980942c-0.058851,-0.433426 -0.496588,-0.759361 -0.958218,-0.736898c-0.055203,-0.002834 -0.109463,0.00126 -0.167373,0.009028l-7.516376,1.005834c-0.038606,0.004934 -0.076271,0.012282 -0.114054,0.021729c-1.63489,0.408443 -2.906315,1.291565 -3.807917,2.378647z"/>
   </g>
  </g>
  <g id="svg_18"/>
  <g id="svg_19"/>
  <g id="svg_20"/>
  <g id="svg_21"/>
  <g id="svg_22"/>
  <g id="svg_23"/>
  <g id="svg_24"/>
  <g id="svg_25"/>
  <g id="svg_26"/>
  <g id="svg_27"/>
  <g id="svg_28"/>
  <g id="svg_29"/>
  <g id="svg_30"/>
  <g id="svg_31"/>
  <g id="svg_32"/>
 </g>
</svg>